<mxfile host="app.diagrams.net" agent="Mozilla/5.0 (Windows NT 10.0; Win64; x64) AppleWebKit/537.36 (KHTML, like Gecko) Chrome/129.0.0.0 Safari/537.36" version="24.7.17">
  <diagram name="Side-1" id="uGvahSIf0_ufd2Hupg-i">
    <mxGraphModel dx="875" dy="463" grid="1" gridSize="1" guides="1" tooltips="1" connect="1" arrows="1" fold="1" page="1" pageScale="1" pageWidth="827" pageHeight="1169" math="0" shadow="0">
      <root>
        <mxCell id="0" />
        <mxCell id="1" parent="0" />
        <mxCell id="hVeD87Bo2OYlw0J0keK4-12" value="RW = Read" style="text;html=1;align=center;verticalAlign=middle;whiteSpace=wrap;rounded=0;fillColor=none;" vertex="1" parent="1">
          <mxGeometry x="94" y="183" width="95" height="30" as="geometry" />
        </mxCell>
        <mxCell id="hVeD87Bo2OYlw0J0keK4-8" value="RW = Write" style="text;html=1;align=center;verticalAlign=middle;whiteSpace=wrap;rounded=0;fillColor=none;" vertex="1" parent="1">
          <mxGeometry x="415" y="184" width="95" height="30" as="geometry" />
        </mxCell>
        <mxCell id="hVeD87Bo2OYlw0J0keK4-15" value="Send RAM data at Address to Port" style="rounded=1;whiteSpace=wrap;html=1;" vertex="1" parent="1">
          <mxGeometry x="76" y="389" width="120" height="40" as="geometry" />
        </mxCell>
        <mxCell id="hVeD87Bo2OYlw0J0keK4-16" value="Reset State to &#39;Set Address&#39;" style="rounded=1;whiteSpace=wrap;html=1;" vertex="1" parent="1">
          <mxGeometry x="76" y="466" width="120" height="40" as="geometry" />
        </mxCell>
        <mxCell id="hVeD87Bo2OYlw0J0keK4-17" value="" style="endArrow=none;html=1;rounded=0;exitX=0.5;exitY=0;exitDx=0;exitDy=0;entryX=0.5;entryY=1;entryDx=0;entryDy=0;startArrow=blockThin;startFill=1;" edge="1" parent="1" source="hVeD87Bo2OYlw0J0keK4-16" target="hVeD87Bo2OYlw0J0keK4-15">
          <mxGeometry width="50" height="50" relative="1" as="geometry">
            <mxPoint x="153" y="445" as="sourcePoint" />
            <mxPoint x="203" y="395" as="targetPoint" />
          </mxGeometry>
        </mxCell>
        <mxCell id="hVeD87Bo2OYlw0J0keK4-26" style="edgeStyle=orthogonalEdgeStyle;rounded=0;orthogonalLoop=1;jettySize=auto;html=1;entryX=1;entryY=0.5;entryDx=0;entryDy=0;exitX=1;exitY=0.5;exitDx=0;exitDy=0;curved=1;" edge="1" parent="1" source="hVeD87Bo2OYlw0J0keK4-21" target="hVeD87Bo2OYlw0J0keK4-23">
          <mxGeometry relative="1" as="geometry">
            <Array as="points">
              <mxPoint x="607" y="328" />
              <mxPoint x="607" y="441" />
            </Array>
          </mxGeometry>
        </mxCell>
        <mxCell id="hVeD87Bo2OYlw0J0keK4-102" style="edgeStyle=orthogonalEdgeStyle;rounded=0;orthogonalLoop=1;jettySize=auto;html=1;exitX=0;exitY=0;exitDx=0;exitDy=0;entryX=1;entryY=0.5;entryDx=0;entryDy=0;curved=1;" edge="1" parent="1" source="hVeD87Bo2OYlw0J0keK4-21" target="hVeD87Bo2OYlw0J0keK4-86">
          <mxGeometry relative="1" as="geometry" />
        </mxCell>
        <mxCell id="hVeD87Bo2OYlw0J0keK4-21" value="&lt;div&gt;Save Address&lt;/div&gt;" style="ellipse;whiteSpace=wrap;html=1;" vertex="1" parent="1">
          <mxGeometry x="445.99999999999994" y="288" width="120" height="80" as="geometry" />
        </mxCell>
        <mxCell id="hVeD87Bo2OYlw0J0keK4-28" style="edgeStyle=orthogonalEdgeStyle;rounded=0;orthogonalLoop=1;jettySize=auto;html=1;entryX=0;entryY=0.5;entryDx=0;entryDy=0;curved=1;exitX=0.004;exitY=0.533;exitDx=0;exitDy=0;exitPerimeter=0;" edge="1" parent="1" source="hVeD87Bo2OYlw0J0keK4-23" target="hVeD87Bo2OYlw0J0keK4-21">
          <mxGeometry relative="1" as="geometry">
            <Array as="points">
              <mxPoint x="406.99999999999994" y="444" />
              <mxPoint x="406.99999999999994" y="328" />
            </Array>
          </mxGeometry>
        </mxCell>
        <mxCell id="hVeD87Bo2OYlw0J0keK4-106" style="edgeStyle=orthogonalEdgeStyle;rounded=0;orthogonalLoop=1;jettySize=auto;html=1;entryX=1;entryY=0.5;entryDx=0;entryDy=0;curved=1;" edge="1" parent="1" source="hVeD87Bo2OYlw0J0keK4-23" target="hVeD87Bo2OYlw0J0keK4-96">
          <mxGeometry relative="1" as="geometry">
            <Array as="points">
              <mxPoint x="506" y="502" />
              <mxPoint x="408" y="502" />
              <mxPoint x="408" y="468" />
            </Array>
          </mxGeometry>
        </mxCell>
        <mxCell id="hVeD87Bo2OYlw0J0keK4-23" value="Save Data To RAM at Address&lt;div&gt;&lt;/div&gt;" style="ellipse;whiteSpace=wrap;html=1;" vertex="1" parent="1">
          <mxGeometry x="445.99999999999994" y="401" width="120" height="80" as="geometry" />
        </mxCell>
        <mxCell id="hVeD87Bo2OYlw0J0keK4-35" style="edgeStyle=orthogonalEdgeStyle;rounded=0;orthogonalLoop=1;jettySize=auto;html=1;entryX=0.5;entryY=0;entryDx=0;entryDy=0;exitX=0;exitY=0.5;exitDx=0;exitDy=0;" edge="1" parent="1" source="hVeD87Bo2OYlw0J0keK4-30" target="hVeD87Bo2OYlw0J0keK4-33">
          <mxGeometry relative="1" as="geometry">
            <mxPoint x="180" y="210" as="sourcePoint" />
          </mxGeometry>
        </mxCell>
        <mxCell id="hVeD87Bo2OYlw0J0keK4-83" style="edgeStyle=orthogonalEdgeStyle;rounded=0;orthogonalLoop=1;jettySize=auto;html=1;entryX=0.5;entryY=0;entryDx=0;entryDy=0;" edge="1" parent="1" source="hVeD87Bo2OYlw0J0keK4-30" target="hVeD87Bo2OYlw0J0keK4-21">
          <mxGeometry relative="1" as="geometry">
            <mxPoint x="505" y="260" as="targetPoint" />
          </mxGeometry>
        </mxCell>
        <mxCell id="hVeD87Bo2OYlw0J0keK4-30" value="Read or&lt;div&gt;Write?&lt;/div&gt;" style="rhombus;whiteSpace=wrap;html=1;" vertex="1" parent="1">
          <mxGeometry x="233" y="170" width="163" height="80" as="geometry" />
        </mxCell>
        <mxCell id="hVeD87Bo2OYlw0J0keK4-36" style="edgeStyle=orthogonalEdgeStyle;rounded=0;orthogonalLoop=1;jettySize=auto;html=1;entryX=0.5;entryY=0;entryDx=0;entryDy=0;" edge="1" parent="1" source="hVeD87Bo2OYlw0J0keK4-33" target="hVeD87Bo2OYlw0J0keK4-15">
          <mxGeometry relative="1" as="geometry" />
        </mxCell>
        <mxCell id="hVeD87Bo2OYlw0J0keK4-33" value="CLK?" style="rhombus;whiteSpace=wrap;html=1;" vertex="1" parent="1">
          <mxGeometry x="96" y="249" width="80" height="80" as="geometry" />
        </mxCell>
        <mxCell id="hVeD87Bo2OYlw0J0keK4-37" value="" style="endArrow=none;html=1;rounded=0;" edge="1" parent="1">
          <mxGeometry width="50" height="50" relative="1" as="geometry">
            <mxPoint x="109" y="355" as="sourcePoint" />
            <mxPoint x="121" y="355" as="targetPoint" />
          </mxGeometry>
        </mxCell>
        <mxCell id="hVeD87Bo2OYlw0J0keK4-38" value="" style="endArrow=none;html=1;rounded=0;" edge="1" parent="1">
          <mxGeometry width="50" height="50" relative="1" as="geometry">
            <mxPoint x="121" y="355" as="sourcePoint" />
            <mxPoint x="121" y="343" as="targetPoint" />
          </mxGeometry>
        </mxCell>
        <mxCell id="hVeD87Bo2OYlw0J0keK4-39" value="" style="endArrow=none;html=1;rounded=0;" edge="1" parent="1">
          <mxGeometry width="50" height="50" relative="1" as="geometry">
            <mxPoint x="121" y="343" as="sourcePoint" />
            <mxPoint x="133" y="343" as="targetPoint" />
          </mxGeometry>
        </mxCell>
        <mxCell id="hVeD87Bo2OYlw0J0keK4-40" value="CLK" style="text;html=1;align=center;verticalAlign=middle;whiteSpace=wrap;rounded=0;fillColor=none;" vertex="1" parent="1">
          <mxGeometry x="87" y="333" width="33" height="30" as="geometry" />
        </mxCell>
        <mxCell id="hVeD87Bo2OYlw0J0keK4-42" value="" style="endArrow=classic;html=1;rounded=0;" edge="1" parent="1">
          <mxGeometry width="50" height="50" relative="1" as="geometry">
            <mxPoint x="121" y="352" as="sourcePoint" />
            <mxPoint x="121" y="344" as="targetPoint" />
          </mxGeometry>
        </mxCell>
        <mxCell id="hVeD87Bo2OYlw0J0keK4-55" value="" style="endArrow=none;html=1;rounded=0;" edge="1" parent="1">
          <mxGeometry width="50" height="50" relative="1" as="geometry">
            <mxPoint x="433.99999999999994" y="396" as="sourcePoint" />
            <mxPoint x="445.99999999999994" y="396" as="targetPoint" />
          </mxGeometry>
        </mxCell>
        <mxCell id="hVeD87Bo2OYlw0J0keK4-56" value="" style="endArrow=none;html=1;rounded=0;" edge="1" parent="1">
          <mxGeometry width="50" height="50" relative="1" as="geometry">
            <mxPoint x="445.99999999999994" y="396" as="sourcePoint" />
            <mxPoint x="445.99999999999994" y="384" as="targetPoint" />
          </mxGeometry>
        </mxCell>
        <mxCell id="hVeD87Bo2OYlw0J0keK4-57" value="" style="endArrow=none;html=1;rounded=0;" edge="1" parent="1">
          <mxGeometry width="50" height="50" relative="1" as="geometry">
            <mxPoint x="445.99999999999994" y="384" as="sourcePoint" />
            <mxPoint x="457.99999999999994" y="384" as="targetPoint" />
          </mxGeometry>
        </mxCell>
        <mxCell id="hVeD87Bo2OYlw0J0keK4-58" value="" style="endArrow=classic;html=1;rounded=0;" edge="1" parent="1">
          <mxGeometry width="50" height="50" relative="1" as="geometry">
            <mxPoint x="445.99999999999994" y="393" as="sourcePoint" />
            <mxPoint x="445.99999999999994" y="385" as="targetPoint" />
          </mxGeometry>
        </mxCell>
        <mxCell id="hVeD87Bo2OYlw0J0keK4-59" value="CLK" style="text;html=1;align=center;verticalAlign=middle;whiteSpace=wrap;rounded=0;fillColor=none;" vertex="1" parent="1">
          <mxGeometry x="411.99999999999994" y="374" width="33" height="30" as="geometry" />
        </mxCell>
        <mxCell id="hVeD87Bo2OYlw0J0keK4-60" value="" style="endArrow=none;html=1;rounded=0;" edge="1" parent="1">
          <mxGeometry width="50" height="50" relative="1" as="geometry">
            <mxPoint x="580" y="391" as="sourcePoint" />
            <mxPoint x="592" y="391" as="targetPoint" />
          </mxGeometry>
        </mxCell>
        <mxCell id="hVeD87Bo2OYlw0J0keK4-61" value="" style="endArrow=none;html=1;rounded=0;" edge="1" parent="1">
          <mxGeometry width="50" height="50" relative="1" as="geometry">
            <mxPoint x="592" y="391" as="sourcePoint" />
            <mxPoint x="592" y="379" as="targetPoint" />
          </mxGeometry>
        </mxCell>
        <mxCell id="hVeD87Bo2OYlw0J0keK4-62" value="" style="endArrow=none;html=1;rounded=0;" edge="1" parent="1">
          <mxGeometry width="50" height="50" relative="1" as="geometry">
            <mxPoint x="592" y="379" as="sourcePoint" />
            <mxPoint x="604" y="379" as="targetPoint" />
          </mxGeometry>
        </mxCell>
        <mxCell id="hVeD87Bo2OYlw0J0keK4-63" value="" style="endArrow=classic;html=1;rounded=0;" edge="1" parent="1">
          <mxGeometry width="50" height="50" relative="1" as="geometry">
            <mxPoint x="592" y="388" as="sourcePoint" />
            <mxPoint x="592" y="380" as="targetPoint" />
          </mxGeometry>
        </mxCell>
        <mxCell id="hVeD87Bo2OYlw0J0keK4-64" value="CLK" style="text;html=1;align=center;verticalAlign=middle;whiteSpace=wrap;rounded=0;fillColor=none;" vertex="1" parent="1">
          <mxGeometry x="559" y="368" width="33" height="30" as="geometry" />
        </mxCell>
        <mxCell id="hVeD87Bo2OYlw0J0keK4-73" value="Process begin" style="text;html=1;align=center;verticalAlign=middle;whiteSpace=wrap;rounded=0;fillColor=none;" vertex="1" parent="1">
          <mxGeometry x="258" y="135" width="118" height="30" as="geometry" />
        </mxCell>
        <mxCell id="hVeD87Bo2OYlw0J0keK4-104" style="edgeStyle=orthogonalEdgeStyle;rounded=0;orthogonalLoop=1;jettySize=auto;html=1;entryX=1;entryY=0.5;entryDx=0;entryDy=0;curved=1;" edge="1" parent="1" source="hVeD87Bo2OYlw0J0keK4-86" target="hVeD87Bo2OYlw0J0keK4-15">
          <mxGeometry relative="1" as="geometry" />
        </mxCell>
        <mxCell id="hVeD87Bo2OYlw0J0keK4-86" value="Address variable" style="shape=parallelogram;perimeter=parallelogramPerimeter;whiteSpace=wrap;html=1;fixedSize=1;" vertex="1" parent="1">
          <mxGeometry x="257" y="320" width="115" height="41" as="geometry" />
        </mxCell>
        <mxCell id="hVeD87Bo2OYlw0J0keK4-105" style="edgeStyle=orthogonalEdgeStyle;rounded=0;orthogonalLoop=1;jettySize=auto;html=1;curved=1;" edge="1" parent="1" source="hVeD87Bo2OYlw0J0keK4-96">
          <mxGeometry relative="1" as="geometry">
            <mxPoint x="197" y="409" as="targetPoint" />
            <Array as="points">
              <mxPoint x="223" y="468" />
              <mxPoint x="223" y="409" />
            </Array>
          </mxGeometry>
        </mxCell>
        <mxCell id="hVeD87Bo2OYlw0J0keK4-96" value="RAM" style="swimlane;whiteSpace=wrap;html=1;" vertex="1" parent="1">
          <mxGeometry x="257" y="431" width="113" height="74" as="geometry" />
        </mxCell>
        <mxCell id="hVeD87Bo2OYlw0J0keK4-97" value="Address(0x00)&lt;div&gt;..&lt;/div&gt;&lt;div&gt;Address(0x17)&lt;/div&gt;" style="text;html=1;align=center;verticalAlign=middle;whiteSpace=wrap;rounded=0;" vertex="1" parent="hVeD87Bo2OYlw0J0keK4-96">
          <mxGeometry x="24" y="34" width="60" height="30" as="geometry" />
        </mxCell>
        <mxCell id="hVeD87Bo2OYlw0J0keK4-98" value="" style="endArrow=none;dashed=1;html=1;dashPattern=1 3;strokeWidth=2;rounded=0;" edge="1" parent="1">
          <mxGeometry width="50" height="50" relative="1" as="geometry">
            <mxPoint x="553" y="299" as="sourcePoint" />
            <mxPoint x="587" y="270" as="targetPoint" />
          </mxGeometry>
        </mxCell>
        <mxCell id="hVeD87Bo2OYlw0J0keK4-99" value="" style="endArrow=none;dashed=1;html=1;dashPattern=1 3;strokeWidth=2;rounded=0;" edge="1" parent="1">
          <mxGeometry width="50" height="50" relative="1" as="geometry">
            <mxPoint x="538" y="477" as="sourcePoint" />
            <mxPoint x="568" y="497" as="targetPoint" />
          </mxGeometry>
        </mxCell>
        <mxCell id="hVeD87Bo2OYlw0J0keK4-100" value="Initial state = Save Address" style="text;html=1;align=center;verticalAlign=middle;whiteSpace=wrap;rounded=0;fillColor=none;" vertex="1" parent="1">
          <mxGeometry x="537" y="243" width="95" height="30" as="geometry" />
        </mxCell>
        <mxCell id="hVeD87Bo2OYlw0J0keK4-101" value="State = Save Data" style="text;html=1;align=center;verticalAlign=middle;whiteSpace=wrap;rounded=0;fillColor=none;" vertex="1" parent="1">
          <mxGeometry x="561" y="478" width="95" height="30" as="geometry" />
        </mxCell>
      </root>
    </mxGraphModel>
  </diagram>
</mxfile>
